{"title":"Modern Family S05E06 HDTV 480p x264 AAC [GWC].mp4","uid":9091013,"size":84125241,"categoryP":"video","categoryS":"tv_shows","magnet":"?xt=urn:btih:c7327b95fb8c1cbc9c6b74d57deb7edb7f945ebe&amp;dn=Modern+Family+S05E06+HDTV+480p+x264+AAC+%5BGWC%5D.mp4&amp;tr=udp%3A%2F%2Ftracker.openbittorrent.com%3A80&amp;tr=udp%3A%2F%2Fopen.demonii.com%3A1337&amp;tr=udp%3A%2F%2Ftracker.coppersurfer.tk%3A6969&amp;tr=udp%3A%2F%2Fexodus.desync.com%3A6969","seeders":4,"leechers":0,"uploader":"canc232","files":1,"time":1382595704,"description":"Modern Family S05E06 HDTV 480p x264 AAC [GWC].mp4\n\nSCREENS :\n &lt;a href=&quot;\nhttp://s20.postimg.org/k76shoovx/Modern_Family_S05_E06_HDTV_480p_x264_AAC_GWC_09.jpg&quot; rel=&quot;nofollow&quot; target=&quot;_NEW&quot;&gt;\nhttp://s20.postimg.org/k76shoovx/Modern_Family_S05_E06_HDTV_480p_x264_AAC_GWC_09.jpg&lt;/a&gt; &lt;a href=&quot;\nhttp://s20.postimg.org/f79c9qj99/Modern_Family_S05_E06_HDTV_480p_x264_AAC_GWC_09.jpg&quot; rel=&quot;nofollow&quot; target=&quot;_NEW&quot;&gt;\nhttp://s20.postimg.org/f79c9qj99/Modern_Family_S05_E06_HDTV_480p_x264_AAC_GWC_09.jpg&lt;/a&gt; &lt;a href=&quot;\nhttp://s20.postimg.org/9ukhvlvct/Modern_Family_S05_E06_HDTV_480p_x264_AAC_GWC_09.jpg&quot; rel=&quot;nofollow&quot; target=&quot;_NEW&quot;&gt;\nhttp://s20.postimg.org/9ukhvlvct/Modern_Family_S05_E06_HDTV_480p_x264_AAC_GWC_09.jpg&lt;/a&gt;\n\n\nMEDIA INFO :\n\nGeneral \nFormat : MPEG-4 \nFormat profile : Base Media \nFile size : 80.2 MiB \nDuration : 20mn 51s \nOverall bit rate : 538 Kbps \n\nVideo \nFormat : AVC \nFormat profile : &lt;a class=&quot;__cf_email__&quot; href=&quot;/cdn-cgi/l/email-protection&quot; data-cfemail=&quot;95ddfcf2fdd5d9a6bba5&quot;&gt;[email&amp;#160;protected]&lt;/a&gt;&lt;script cf-hash='f9e31' type=&quot;text/javascript&quot;&gt;\n/* &lt;![CDATA[ */!function(){try{var t=&quot;currentScript&quot;in document?document.currentScript:function(){for(var t=document.getElementsByTagName(&quot;script&quot;),e=t.length;e--;)if(t[e].getAttribute(&quot;cf-hash&quot;))return t[e]}();if(t&amp;&amp;t.previousSibling){var e,r,n,i,c=t.previousSibling,a=c.getAttribute(&quot;data-cfemail&quot;);if(a){for(e=&quot;&quot;,r=parseInt(a.substr(0,2),16),n=2;a.length-n;n+=2)i=parseInt(a.substr(n,2),16)^r,e+=String.fromCharCode(i);e=document.createTextNode(e),c.parentNode.replaceChild(e,c)}}}catch(u){}}();/* ]]&gt; */&lt;/script&gt; \nFormat settings, CABAC : Yes \nFormat settings, ReFrames : 4 frames \nDuration : 20mn 51s \nBit rate : 474 Kbps \nWidth : 720 pixels \nHeight : 408 pixels \nDisplay aspect ratio : 16:9 \nFrame rate : 23.976 fps \nStream size : 70.8 MiB (88%) \nTitle : Modern Family S05E06 HDTV 480p x264 AAC [GWC] \nWriting library : x264 core\n\nAudio \nFormat : AAC \nFormat profile : HE-AAC / LC \nDuration : 20mn 51s \nBit rate mode : Variable \nChannel(s) : 2 channels \nSampling rate : 48.0 KHz\nStream size : 8.96 MiB (11%) \nLanguage : English","torrent":{"xt":"urn:btih:c7327b95fb8c1cbc9c6b74d57deb7edb7f945ebe","amp;dn":"Modern+Family+S05E06+HDTV+480p+x264+AAC+%5BGWC%5D.mp4","amp;tr":["udp%3A%2F%2Ftracker.openbittorrent.com%3A80","udp%3A%2F%2Fopen.demonii.com%3A1337","udp%3A%2F%2Ftracker.coppersurfer.tk%3A6969","udp%3A%2F%2Fexodus.desync.com%3A6969"],"infoHash":"c7327b95fb8c1cbc9c6b74d57deb7edb7f945ebe","infoHashBuffer":{"type":"Buffer","data":[199,50,123,149,251,140,28,188,156,107,116,213,125,235,126,219,127,148,94,190]},"announce":[],"urlList":[]}}